<svg id="Capa_1" enable-background="new 0 0 512 512" height="512" viewBox="0 0 512 512" width="512" xmlns="http://www.w3.org/2000/svg"><path d="m205.841 13.026c-16.922-17.273-44.783-17.269-62.274-.573l-3.117 2.976c-2.017 1.926-5.191 1.926-7.208 0l-3.117-2.976c-17.491-16.697-45.352-16.7-62.274.573-17.194 17.55-16.678 45.714 1.039 62.626 1.262 1.205 50.311 48.026 64.355 61.433 2.017 1.926 5.185 1.926 7.202 0 14.045-13.407 63.093-60.228 64.355-61.433 17.717-16.913 18.233-45.076 1.039-62.626z" fill="#ff656f"/><path d="m115.247 63.086c-17.17-16.39-18.185-43.344-2.584-60.968-15.381-4.877-32.836-1.318-44.814 10.908-17.194 17.55-16.678 45.713 1.04 62.626 1.262 1.205 50.311 48.026 64.355 61.433 2.017 1.925 5.185 1.925 7.202 0 5.26-5.021 15.43-14.729 26.16-24.972-19.834-18.933-50.367-48.079-51.359-49.027z" fill="#ff4756"/><path d="m419.719 269.561-226.577-68.891c-39.792-21.97-90.854-16.445-124.001 17.388-40.27 41.105-39.062 107.066 2.435 146.678 2.956 2.822 117.833 112.481 150.727 143.882 4.724 4.51 12.144 4.51 16.868 0 32.894-31.4 147.771-141.06 150.727-143.882 26.602-25.393 36.646-61.614 29.821-95.175z" fill="#ff656f"/><path d="m117.934 352.17c-41.497-39.612-42.705-105.572-2.435-146.678 7.113-7.26 15.055-13.207 23.529-17.868-25.524.777-50.706 10.855-69.887 30.434-40.27 41.105-39.062 107.066 2.435 146.678 2.956 2.822 117.833 112.481 150.727 143.882 4.724 4.51 12.144 4.51 16.868 0 5.269-5.03 12.648-12.074 21.327-20.358-40.449-38.612-139.818-133.468-142.564-136.09z" fill="#ff4756"/><path d="m450.698 134.045c-29.088-29.691-76.979-29.685-107.045-.984l-5.358 5.115c-3.467 3.31-8.924 3.31-12.391 0l-5.358-5.115c-30.066-28.7-77.957-28.707-107.045.984-29.555 30.168-28.669 78.578 1.787 107.65 2.169 2.071 86.481 82.553 110.622 105.598 3.467 3.31 8.913 3.31 12.38 0 24.142-23.045 108.453-103.527 110.622-105.598 30.454-29.072 31.341-77.482 1.786-107.65z" fill="#ff656f"/><path d="m261.644 229.129c-30.455-29.072-31.342-77.482-1.787-107.65 3.611-3.685 7.512-6.911 11.632-9.683-20.967-1.182-42.236 6.168-57.99 22.249-29.555 30.168-28.669 78.578 1.787 107.65 2.17 2.071 86.481 82.553 110.622 105.598 3.467 3.31 8.912 3.31 12.38 0 5.387-5.142 13.774-13.148 23.571-22.5-31.909-30.46-98.293-93.829-100.215-95.664z" fill="#ff4756"/></svg>